<svg xmlns="http://www.w3.org/2000/svg" viewBox="0 0 1074.71 648"><defs><style>.cls-1{fill:#283449;}.cls-2{fill:#93c47d;}.cls-3,.cls-4{fill:none;stroke:#93c47d;stroke-miterlimit:10;}.cls-3{stroke-width:4px;}.cls-4{stroke-width:2px;}</style></defs><title>logo-polluviz</title><g id="nuage"><path class="cls-1" d="M1032.48,360.27c0-1,.07-2,.07-3a146.5,146.5,0,0,0-235-116.79C766.78,138.94,672.43,65,560.8,65,424.16,65,313.4,175.76,313.4,312.4a248.56,248.56,0,0,0,4.68,48.07c-89.68,4.25-161.32,94.06-161.32,184.59A167.92,167.92,0,0,0,323.13,713c.26,0,.52,0,.78,0h748.66a33.46,33.46,0,0,0,7.19-.8,167.94,167.94,0,0,0,151.71-167.14c0-86.9-67.34-171.41-153.47-183.06Z" transform="translate(-156.76 -65)"/></g><g id="oeil"><path class="cls-2" d="M975,476c-1.18-1.49-29.33-36.8-77.59-72.26-64.49-47.38-134.67-72.43-202.93-72.43s-138.44,25-202.93,72.43C443.3,439.21,415.15,474.52,414,476l-10,12.62,10,12.62c1.17,1.49,29.33,36.8,77.59,72.26,64.49,47.38,134.67,72.43,202.93,72.43s138.44-25,202.93-72.43c48.26-35.46,76.41-70.77,77.59-72.26l10-12.62ZM872.41,541.38c-39.88,29.13-103.12,63.85-177.91,63.85s-138-34.72-177.91-63.85A427.55,427.55,0,0,1,457,488.63a427.72,427.72,0,0,1,59.57-52.76C556.47,406.74,619.7,372,694.5,372s138,34.72,177.91,63.85A427.64,427.64,0,0,1,932,488.63,427.45,427.45,0,0,1,872.41,541.38Z" transform="translate(-156.76 -65)"/><path class="cls-3" d="M719.23,395.21l-1.35-.28-17.81,86.41,80.46-37.86A88.68,88.68,0,0,0,719.23,395.21Z" transform="translate(-156.76 -65)"/><path class="cls-3" d="M785.51,449.56,706,487.67l-1.13.54L792.34,507l0-.13A88.48,88.48,0,0,0,785.51,449.56Z" transform="translate(-156.76 -65)"/><line class="cls-4" x1="568.17" y1="427.58" x2="574.16" y2="411.57"/><line class="cls-4" x1="559.38" y1="426.39" x2="563.38" y2="416.39"/><line class="cls-4" x1="630.39" y1="440.36" x2="637.38" y2="421.35"/><line class="cls-4" x1="577.25" y1="427.59" x2="585.24" y2="405.59"/><line class="cls-4" x1="585.39" y1="430.38" x2="596.38" y2="400.37"/><line class="cls-4" x1="620.8" y1="436.98" x2="633.78" y2="401.97"/><line class="cls-4" x1="593.93" y1="432.02" x2="607.92" y2="393.02"/><line class="cls-4" x1="602.19" y1="433.84" x2="619.17" y2="387.83"/><line class="cls-4" x1="611.07" y1="435.8" x2="629.04" y2="385.1"/><path class="cls-2" d="M712.07,402.88a88.87,88.87,0,1,0,68.47,105.81L694.11,490Z" transform="translate(-156.76 -65)"/></g></svg>